<mxfile host="app.diagrams.net" modified="2024-05-15T07:11:47.442Z" agent="Mozilla/5.0 (Windows NT 10.0; Win64; x64) AppleWebKit/537.36 (KHTML, like Gecko) Chrome/124.0.0.0 Safari/537.36" etag="uDmezsIEAVagSYf0bv55" version="24.4.0" type="device">
  <diagram name="第 1 页" id="-XkjZD8cnCBBgzg0jkDg">
    <mxGraphModel dx="1185" dy="632" grid="1" gridSize="10" guides="1" tooltips="1" connect="1" arrows="1" fold="1" page="1" pageScale="1" pageWidth="827" pageHeight="1169" math="0" shadow="0">
      <root>
        <mxCell id="0" />
        <mxCell id="1" parent="0" />
        <mxCell id="cNRJfE0Vo3YZMxByOhV5-21" value="" style="rounded=0;whiteSpace=wrap;html=1;fillColor=#d5e8d4;strokeColor=#82b366;" vertex="1" parent="1">
          <mxGeometry x="150" y="890" width="580" height="510" as="geometry" />
        </mxCell>
        <mxCell id="cNRJfE0Vo3YZMxByOhV5-11" style="edgeStyle=orthogonalEdgeStyle;rounded=0;orthogonalLoop=1;jettySize=auto;html=1;exitX=0.5;exitY=1;exitDx=0;exitDy=0;entryX=0.5;entryY=0;entryDx=0;entryDy=0;" edge="1" parent="1" source="cNRJfE0Vo3YZMxByOhV5-3" target="cNRJfE0Vo3YZMxByOhV5-7">
          <mxGeometry relative="1" as="geometry" />
        </mxCell>
        <mxCell id="cNRJfE0Vo3YZMxByOhV5-3" value="Grab Channel name/information under the phone number to take the auth" style="rounded=1;whiteSpace=wrap;html=1;" vertex="1" parent="1">
          <mxGeometry x="175" y="360" width="250" height="40" as="geometry" />
        </mxCell>
        <mxCell id="cNRJfE0Vo3YZMxByOhV5-27" style="edgeStyle=orthogonalEdgeStyle;rounded=0;orthogonalLoop=1;jettySize=auto;html=1;exitX=1;exitY=0.5;exitDx=0;exitDy=0;entryX=1;entryY=0.5;entryDx=0;entryDy=0;" edge="1" parent="1" source="cNRJfE0Vo3YZMxByOhV5-5" target="cNRJfE0Vo3YZMxByOhV5-16">
          <mxGeometry relative="1" as="geometry">
            <Array as="points">
              <mxPoint x="760" y="480" />
              <mxPoint x="760" y="720" />
            </Array>
          </mxGeometry>
        </mxCell>
        <mxCell id="cNRJfE0Vo3YZMxByOhV5-5" value="if link_length &amp;gt; max (link)" style="rhombus;whiteSpace=wrap;html=1;" vertex="1" parent="1">
          <mxGeometry x="525" y="440" width="160" height="80" as="geometry" />
        </mxCell>
        <mxCell id="cNRJfE0Vo3YZMxByOhV5-26" style="edgeStyle=orthogonalEdgeStyle;rounded=0;orthogonalLoop=1;jettySize=auto;html=1;exitX=0.5;exitY=0;exitDx=0;exitDy=0;entryX=0.5;entryY=1;entryDx=0;entryDy=0;" edge="1" parent="1" source="cNRJfE0Vo3YZMxByOhV5-6" target="cNRJfE0Vo3YZMxByOhV5-5">
          <mxGeometry relative="1" as="geometry" />
        </mxCell>
        <mxCell id="cNRJfE0Vo3YZMxByOhV5-6" value="Grab all message (include link, message, image and video)" style="rounded=1;whiteSpace=wrap;html=1;" vertex="1" parent="1">
          <mxGeometry x="480" y="560" width="250" height="40" as="geometry" />
        </mxCell>
        <mxCell id="cNRJfE0Vo3YZMxByOhV5-13" style="edgeStyle=orthogonalEdgeStyle;rounded=0;orthogonalLoop=1;jettySize=auto;html=1;" edge="1" parent="1" source="cNRJfE0Vo3YZMxByOhV5-7" target="cNRJfE0Vo3YZMxByOhV5-12">
          <mxGeometry relative="1" as="geometry" />
        </mxCell>
        <mxCell id="cNRJfE0Vo3YZMxByOhV5-7" value="Get Channel Title and Participants Count" style="shape=parallelogram;perimeter=parallelogramPerimeter;whiteSpace=wrap;html=1;fixedSize=1;" vertex="1" parent="1">
          <mxGeometry x="210" y="440" width="180" height="40" as="geometry" />
        </mxCell>
        <mxCell id="cNRJfE0Vo3YZMxByOhV5-10" style="edgeStyle=orthogonalEdgeStyle;rounded=0;orthogonalLoop=1;jettySize=auto;html=1;exitX=0.5;exitY=1;exitDx=0;exitDy=0;entryX=0.5;entryY=0;entryDx=0;entryDy=0;" edge="1" parent="1" source="cNRJfE0Vo3YZMxByOhV5-8" target="cNRJfE0Vo3YZMxByOhV5-3">
          <mxGeometry relative="1" as="geometry" />
        </mxCell>
        <mxCell id="cNRJfE0Vo3YZMxByOhV5-8" value="Input the group_name" style="shape=parallelogram;perimeter=parallelogramPerimeter;whiteSpace=wrap;html=1;fixedSize=1;" vertex="1" parent="1">
          <mxGeometry x="210" y="280" width="180" height="40" as="geometry" />
        </mxCell>
        <mxCell id="cNRJfE0Vo3YZMxByOhV5-19" style="edgeStyle=orthogonalEdgeStyle;rounded=0;orthogonalLoop=1;jettySize=auto;html=1;exitX=1;exitY=0.5;exitDx=0;exitDy=0;" edge="1" parent="1" source="cNRJfE0Vo3YZMxByOhV5-12" target="cNRJfE0Vo3YZMxByOhV5-6">
          <mxGeometry relative="1" as="geometry" />
        </mxCell>
        <mxCell id="cNRJfE0Vo3YZMxByOhV5-12" value="If length &amp;gt; max(group_name)" style="rhombus;whiteSpace=wrap;html=1;" vertex="1" parent="1">
          <mxGeometry x="226.25" y="540" width="147.5" height="80" as="geometry" />
        </mxCell>
        <mxCell id="cNRJfE0Vo3YZMxByOhV5-16" value="End" style="ellipse;whiteSpace=wrap;html=1;aspect=fixed;" vertex="1" parent="1">
          <mxGeometry x="260" y="680" width="80" height="80" as="geometry" />
        </mxCell>
        <mxCell id="cNRJfE0Vo3YZMxByOhV5-17" style="edgeStyle=orthogonalEdgeStyle;rounded=0;orthogonalLoop=1;jettySize=auto;html=1;exitX=0.5;exitY=1;exitDx=0;exitDy=0;entryX=0.494;entryY=0.031;entryDx=0;entryDy=0;entryPerimeter=0;" edge="1" parent="1" source="cNRJfE0Vo3YZMxByOhV5-12" target="cNRJfE0Vo3YZMxByOhV5-16">
          <mxGeometry relative="1" as="geometry" />
        </mxCell>
        <mxCell id="cNRJfE0Vo3YZMxByOhV5-18" value="True" style="text;html=1;align=center;verticalAlign=middle;resizable=0;points=[];autosize=1;strokeColor=none;fillColor=none;" vertex="1" parent="1">
          <mxGeometry x="250" y="610" width="50" height="30" as="geometry" />
        </mxCell>
        <mxCell id="cNRJfE0Vo3YZMxByOhV5-20" value="False" style="text;strokeColor=none;align=center;fillColor=none;html=1;verticalAlign=middle;whiteSpace=wrap;rounded=0;" vertex="1" parent="1">
          <mxGeometry x="370" y="560" width="40" height="20" as="geometry" />
        </mxCell>
        <mxCell id="cNRJfE0Vo3YZMxByOhV5-22" value="Telegram API" style="text;html=1;align=center;verticalAlign=middle;resizable=0;points=[];autosize=1;strokeColor=none;fillColor=none;" vertex="1" parent="1">
          <mxGeometry x="160" y="230" width="90" height="30" as="geometry" />
        </mxCell>
        <mxCell id="cNRJfE0Vo3YZMxByOhV5-28" value="True" style="text;html=1;align=center;verticalAlign=middle;resizable=0;points=[];autosize=1;strokeColor=none;fillColor=none;" vertex="1" parent="1">
          <mxGeometry x="670" y="450" width="50" height="30" as="geometry" />
        </mxCell>
      </root>
    </mxGraphModel>
  </diagram>
</mxfile>
